<svg width="11" height="15" viewBox="0 0 11 15" fill="none" xmlns="http://www.w3.org/2000/svg">
<path d="M9.58546 7.11711H3.4332V5.01166C3.4332 3.88092 4.35324 2.96091 5.48395 2.96091C6.61467 2.96091 7.53471 3.88095 7.53471 5.01166V7.56487C7.53471 7.79158 7.71816 7.97503 7.94486 7.97503H9.58546C9.81217 7.97503 9.99562 7.79158 9.99562 7.56487V5.01166C9.99562 2.52393 7.97169 0.5 5.48395 0.5C2.99622 0.5 0.97229 2.52393 0.97229 5.01166V7.19266C0.495907 7.36254 0.151978 7.81355 0.151978 8.34755V13.2694C0.151978 13.9479 0.703939 14.4998 1.38242 14.4998H9.58546C10.264 14.4998 10.8159 13.9478 10.8159 13.2694V8.34755C10.8159 7.66904 10.264 7.11711 9.58546 7.11711ZM5.89411 11.1431V12.4491C5.89411 12.6758 5.71066 12.8592 5.48395 12.8592C5.25725 12.8592 5.0738 12.6758 5.0738 12.4491V11.1431C4.59741 10.9732 4.25349 10.5222 4.25349 9.98817C4.25349 9.30966 4.80545 8.7577 5.48395 8.7577C6.16246 8.7577 6.7144 9.30966 6.7144 9.98817C6.7144 10.5222 6.37047 10.9732 5.89411 11.1431Z" fill="#F8F8F8"/>
</svg>
