<svg width="20" height="20" viewBox="0 0 20 20" fill="none" xmlns="http://www.w3.org/2000/svg">
<path d="M19.9559 5.0504C19.853 4.76087 19.6024 4.64469 19.3969 4.78833L17.7304 5.9602C17.5246 6.10497 17.4412 6.45688 17.5441 6.74641C17.6469 7.03477 17.8959 7.15325 18.1031 7.00848L19.7696 5.83661C19.9754 5.69184 20.0588 5.33993 19.9559 5.0504Z" fill="#ebebeb"/>
<path d="M19.7696 11.8197L18.1031 10.6478C17.8973 10.5036 17.6474 10.6198 17.5441 10.9099C17.4412 11.1994 17.5246 11.5513 17.7304 11.6961L19.3969 12.868C19.6047 13.0132 19.8534 12.8933 19.9559 12.6059C20.0588 12.3164 19.9754 11.9644 19.7696 11.8197Z" fill="#ebebeb"/>
<path d="M15.143 9.45325H6.35409V6.44548C6.35409 4.83013 7.66842 3.51583 9.28374 3.51583C10.899 3.51583 12.2134 4.83017 12.2134 6.44548V7.61735C12.2134 7.94122 12.4755 8.20329 12.7993 8.20329H15.143C15.4669 8.20329 15.729 7.94122 15.729 7.61735V6.44548C15.729 2.89157 12.8376 0.000244141 9.28374 0.000244141C5.72983 0.000244141 2.8385 2.89157 2.8385 6.44548V9.56118C2.15795 9.80388 1.66663 10.4482 1.66663 11.211V18.2422C1.66663 19.2115 2.45514 20 3.4244 20H15.143C16.1123 20 16.9008 19.2115 16.9008 18.2422V11.211C16.9008 10.2417 16.1123 9.45325 15.143 9.45325ZM9.86967 15.2046V17.0703C9.86967 17.3942 9.6076 17.6563 9.28374 17.6563C8.95987 17.6563 8.6978 17.3942 8.6978 17.0703V15.2046C8.01725 14.9619 7.52592 14.3176 7.52592 13.5548C7.52592 12.5855 8.31444 11.797 9.28374 11.797C10.253 11.797 11.0415 12.5855 11.0415 13.5548C11.0415 14.3177 10.5502 14.9619 9.86967 15.2046Z" fill="#ebebeb"/>
<path d="M19.5833 8.24219H17.9169C17.6866 8.24219 17.5002 8.50426 17.5002 8.82812C17.5002 9.15199 17.6866 9.41406 17.9169 9.41406H19.5833C19.8136 9.41406 19.9999 9.15199 19.9999 8.82812C19.9999 8.50426 19.8136 8.24219 19.5833 8.24219Z" fill="#ebebeb"/>
</svg>
