<svg width="40" height="44" viewBox="0 0 40 44" fill="none" xmlns="http://www.w3.org/2000/svg">
<path d="M19.6481 2.18445C19.8458 2.07031 20.0894 2.07031 20.287 2.18445L36.9405 11.7993C37.1382 11.9135 37.26 12.1244 37.26 12.3527V31.5824C37.26 31.8107 37.1382 32.0217 36.9405 32.1358L20.287 41.7507C20.0894 41.8648 19.8458 41.8648 19.6481 41.7507L2.99463 32.1358C2.79693 32.0217 2.67515 31.8107 2.67515 31.5824V12.3527C2.67515 12.1244 2.79693 11.9135 2.99463 11.7993L19.6481 2.18445Z" stroke="#03ED66" stroke-width="2.87533"/>
<rect x="12.4597" y="26.9196" width="3.51429" height="6.38962" rx="0.638962" fill="#03ED66"/>
<rect x="18.2104" y="25.0026" width="3.51429" height="8.62599" rx="0.638962" fill="#03ED66"/>
<rect x="23.9609" y="21.4883" width="3.51429" height="12.1403" rx="0.638962" fill="#03ED66"/>
<path d="M6.84715 22.0547C6.30596 22.5077 6.23448 23.3136 6.6875 23.8548C7.14052 24.396 7.9465 24.4675 8.48769 24.0145L6.84715 22.0547ZM17.1949 15.0593L18.0228 14.0858L17.2014 13.3873L16.3747 14.0794L17.1949 15.0593ZM21.8351 19.0052L21.0072 19.9787L21.6956 20.5641L22.477 20.1102L21.8351 19.0052ZM8.48769 24.0145L18.0152 16.0392L16.3747 14.0794L6.84715 22.0547L8.48769 24.0145ZM16.3671 16.0328L21.0072 19.9787L22.6629 18.0317L18.0228 14.0858L16.3671 16.0328ZM22.477 20.1102L28.7132 16.4874L27.4293 14.2774L21.1932 17.9002L22.477 20.1102Z" fill="#03ED66"/>
<path d="M17.1951 15.0593L17.609 14.5726L17.1983 14.2233L16.7849 14.5694L17.1951 15.0593ZM21.8352 19.0052L21.4213 19.492L21.7923 19.8074L22.1948 19.5334L21.8352 19.0052ZM32.0556 12.0473L24.6978 12.5936L28.8498 18.6926L32.0556 12.0473ZM8.0777 23.5245L17.6052 15.5493L16.7849 14.5694L7.25743 22.5446L8.0777 23.5245ZM16.7812 15.5461L21.4213 19.492L22.2492 18.5184L17.609 14.5726L16.7812 15.5461ZM22.1948 19.5334L27.6616 15.8117L26.9424 14.7553L21.4757 18.477L22.1948 19.5334Z" fill="#03ED66"/>
</svg>
